<?xml version="1.0" encoding="iso-8859-1"?>
<!-- Uploaded to: SVG Repo, www.svgrepo.com, Generator: SVG Repo Mixer Tools -->
<svg height="800px" width="800px" version="1.1" id="Layer_1" xmlns="http://www.w3.org/2000/svg" xmlns:xlink="http://www.w3.org/1999/xlink" 
	 viewBox="0 0 511.999 511.999" xml:space="preserve">
<path style="fill:#CCD9CD;" d="M27.893,376.586c0-125.981,102.128-228.107,228.107-228.107s228.107,102.128,228.107,228.107H27.893z
	"/>
<path style="fill:#EDDABF;" d="M490.595,414.151H21.405c-6.189,0-11.206-5.017-11.206-11.206v-15.153
	c0-6.189,5.017-11.206,11.206-11.206h469.19c6.189,0,11.206,5.017,11.206,11.206v15.153
	C501.801,409.134,496.784,414.151,490.595,414.151z"/>
<g>
	<path style="fill:#570029;" d="M494.09,366.699c-2.43-59.943-26.911-115.949-69.583-158.621
		c-29.526-29.526-65.434-50.349-104.614-61.183c-2.49-33.083-30.184-59.246-63.893-59.246s-61.403,26.162-63.893,59.246
		c-39.18,10.834-75.089,31.657-104.614,61.183C44.82,250.749,20.341,306.756,17.91,366.699C7.768,368.376,0,377.183,0,387.792
		v15.153c0,11.803,9.603,21.405,21.405,21.405h469.189c11.802,0,21.405-9.603,21.405-21.405v-15.153
		C512,377.183,504.232,368.376,494.09,366.699z M256,108.048c20.769,0,38.187,14.569,42.603,34.019
		c-13.92-2.499-28.162-3.788-42.603-3.788c-14.441,0-28.683,1.289-42.603,3.788C217.813,122.617,235.231,108.048,256,108.048z
		 M256,158.678c116.738,0,212.33,92.269,217.672,207.709H38.328C43.67,250.947,139.262,158.678,256,158.678z M490.595,386.785
		c0.555,0,1.007,0.452,1.007,1.007v15.153c0,0.555-0.452,1.007-1.007,1.007H21.405c-0.555,0-1.007-0.452-1.007-1.007v-15.153
		c0-0.555,0.452-1.007,1.007-1.007H490.595z"/>
	<path style="fill:#570029;" d="M456.957,338.209c-5.623-29.609-18.052-58.147-35.943-82.527c-3.334-4.542-9.717-5.522-14.257-2.189
		c-4.542,3.333-5.521,9.716-2.189,14.257c16.335,22.258,27.219,47.244,32.35,74.263c0.928,4.891,5.206,8.298,10.008,8.298
		c0.63,0,1.271-0.059,1.913-0.182C454.375,349.08,458.008,343.742,456.957,338.209z"/>
	<path style="fill:#570029;" d="M392.37,224.12c-4.194-3.755-10.645-3.4-14.401,0.797c-3.758,4.197-3.401,10.645,0.796,14.402
		c2.076,1.858,4.134,3.786,6.115,5.729c1.985,1.946,4.563,2.915,7.138,2.915c2.645,0,5.288-1.022,7.285-3.06
		c3.943-4.023,3.879-10.48-0.145-14.423C396.958,228.321,394.674,226.183,392.37,224.12z"/>
</g>
</svg>